<?xml version="1.0" encoding="UTF-8" standalone="no"?>
<svg
   xmlns:dc="http://purl.org/dc/elements/1.1/"
   xmlns:cc="http://creativecommons.org/ns#"
   xmlns:rdf="http://www.w3.org/1999/02/22-rdf-syntax-ns#"
   xmlns:svg="http://www.w3.org/2000/svg"
   xmlns="http://www.w3.org/2000/svg"
   xmlns:sodipodi="http://sodipodi.sourceforge.net/DTD/sodipodi-0.dtd"
   xmlns:inkscape="http://www.inkscape.org/namespaces/inkscape"
   version="1.1"
   id="svg808"
   xml:space="preserve"
   width="384"
   height="288"
   viewBox="0 0 384 288"
   sodipodi:docname="taxa_classifiers.svg"
   inkscape:version="1.0.2 (e86c870879, 2021-01-15, custom)"><metadata
     id="metadata814"><rdf:RDF><cc:Work
         rdf:about=""><dc:format>image/svg+xml</dc:format><dc:type
           rdf:resource="http://purl.org/dc/dcmitype/StillImage" /><dc:title></dc:title></cc:Work></rdf:RDF></metadata><defs
     id="defs812"><clipPath
       clipPathUnits="userSpaceOnUse"
       id="clipPath868"><path
         d="M 34.1,19.4 H 188.64 V 183.06 H 34.1 Z"
         id="path866" /></clipPath></defs><sodipodi:namedview
     pagecolor="#ffffff"
     bordercolor="#666666"
     borderopacity="1"
     objecttolerance="10"
     gridtolerance="10"
     guidetolerance="10"
     inkscape:pageopacity="0"
     inkscape:pageshadow="2"
     inkscape:window-width="1920"
     inkscape:window-height="1177"
     id="namedview810"
     showgrid="false"
     inkscape:zoom="2.6145833"
     inkscape:cx="192"
     inkscape:cy="144"
     inkscape:window-x="-8"
     inkscape:window-y="-8"
     inkscape:window-maximized="1"
     inkscape:current-layer="g816" /><g
     id="g816"
     inkscape:groupmode="layer"
     inkscape:label="taxa_classifiers"
     transform="matrix(1.3333333,0,0,-1.3333333,0,288)"><g
       id="g818" /><g
       id="g820" /><g
       id="g822" /><g
       id="g824" /><g
       id="g826" /><g
       id="g828" /><g
       id="g830" /><g
       id="g832" /><g
       id="g834" /><g
       id="g836" /><g
       id="g838" /><g
       id="g840" /><g
       id="g842" /><g
       id="g844" /><g
       id="g846" /><g
       id="g848" /><g
       id="g850" /><g
       id="g852" /><g
       id="g854" /><g
       id="g860" /><g
       id="g862"><g
         id="g864"
         clip-path="url(#clipPath868)"><path
           d="M 34.1,19.4 H 188.64 V 183.06 H 34.1 Z"
           style="fill:#ffffff;fill-opacity:1;fill-rule:nonzero;stroke:none"
           id="path870" /><path
           d="M 34.1,41.72 H 188.64"
           style="fill:none;stroke:#ebebeb;stroke-width:0.53;stroke-linecap:butt;stroke-linejoin:round;stroke-miterlimit:10;stroke-dasharray:none;stroke-opacity:1"
           id="path872" /><path
           d="M 34.1,71.47 H 188.64"
           style="fill:none;stroke:#ebebeb;stroke-width:0.53;stroke-linecap:butt;stroke-linejoin:round;stroke-miterlimit:10;stroke-dasharray:none;stroke-opacity:1"
           id="path874" /><path
           d="M 34.1,101.23 H 188.64"
           style="fill:none;stroke:#ebebeb;stroke-width:0.53;stroke-linecap:butt;stroke-linejoin:round;stroke-miterlimit:10;stroke-dasharray:none;stroke-opacity:1"
           id="path876" /><path
           d="M 34.1,130.99 H 188.64"
           style="fill:none;stroke:#ebebeb;stroke-width:0.53;stroke-linecap:butt;stroke-linejoin:round;stroke-miterlimit:10;stroke-dasharray:none;stroke-opacity:1"
           id="path878" /><path
           d="M 34.1,160.74 H 188.64"
           style="fill:none;stroke:#ebebeb;stroke-width:0.53;stroke-linecap:butt;stroke-linejoin:round;stroke-miterlimit:10;stroke-dasharray:none;stroke-opacity:1"
           id="path880" /><path
           d="M 34.1,26.84 H 188.64"
           style="fill:none;stroke:#ebebeb;stroke-width:1.07;stroke-linecap:butt;stroke-linejoin:round;stroke-miterlimit:10;stroke-dasharray:none;stroke-opacity:1"
           id="path882" /><path
           d="M 34.1,56.6 H 188.64"
           style="fill:none;stroke:#ebebeb;stroke-width:1.07;stroke-linecap:butt;stroke-linejoin:round;stroke-miterlimit:10;stroke-dasharray:none;stroke-opacity:1"
           id="path884" /><path
           d="M 34.1,86.35 H 188.64"
           style="fill:none;stroke:#ebebeb;stroke-width:1.07;stroke-linecap:butt;stroke-linejoin:round;stroke-miterlimit:10;stroke-dasharray:none;stroke-opacity:1"
           id="path886" /><path
           d="M 34.1,116.11 H 188.64"
           style="fill:none;stroke:#ebebeb;stroke-width:1.07;stroke-linecap:butt;stroke-linejoin:round;stroke-miterlimit:10;stroke-dasharray:none;stroke-opacity:1"
           id="path888" /><path
           d="M 34.1,145.86 H 188.64"
           style="fill:none;stroke:#ebebeb;stroke-width:1.07;stroke-linecap:butt;stroke-linejoin:round;stroke-miterlimit:10;stroke-dasharray:none;stroke-opacity:1"
           id="path890" /><path
           d="M 34.1,175.62 H 188.64"
           style="fill:none;stroke:#ebebeb;stroke-width:1.07;stroke-linecap:butt;stroke-linejoin:round;stroke-miterlimit:10;stroke-dasharray:none;stroke-opacity:1"
           id="path892" /><path
           d="M 63.08,19.4 V 183.06"
           style="fill:none;stroke:#ebebeb;stroke-width:1.07;stroke-linecap:butt;stroke-linejoin:round;stroke-miterlimit:10;stroke-dasharray:none;stroke-opacity:1"
           id="path894" /><path
           d="M 111.37,19.4 V 183.06"
           style="fill:none;stroke:#ebebeb;stroke-width:1.07;stroke-linecap:butt;stroke-linejoin:round;stroke-miterlimit:10;stroke-dasharray:none;stroke-opacity:1"
           id="path896" /><path
           d="M 159.67,19.4 V 183.06"
           style="fill:none;stroke:#ebebeb;stroke-width:1.07;stroke-linecap:butt;stroke-linejoin:round;stroke-miterlimit:10;stroke-dasharray:none;stroke-opacity:1"
           id="path898" /><path
           d="M 63.08,63.03 V 80.57"
           style="fill:none;stroke:#507e91;stroke-width:1.07;stroke-linecap:butt;stroke-linejoin:round;stroke-miterlimit:10;stroke-dasharray:none;stroke-opacity:1"
           id="path900" /><path
           d="M 63.08,43.85 V 31.64"
           style="fill:none;stroke:#507e91;stroke-width:1.07;stroke-linecap:butt;stroke-linejoin:round;stroke-miterlimit:10;stroke-dasharray:none;stroke-opacity:1"
           id="path902" /><path
           d="M 44.97,63.03 V 43.85 h 36.22 v 19.18 z"
           style="fill:#ffffff;fill-opacity:1;fill-rule:nonzero;stroke:#507e91;stroke-width:1.07;stroke-linecap:round;stroke-linejoin:round;stroke-miterlimit:10;stroke-dasharray:none;stroke-opacity:1"
           id="path904" /><path
           d="M 44.97,60.88 H 81.19"
           style="fill:none;stroke:#507e91;stroke-width:2.13;stroke-linecap:butt;stroke-linejoin:round;stroke-miterlimit:10;stroke-dasharray:none;stroke-opacity:1"
           id="path906" /><path
           d="M 111.37,67.24 V 86.65"
           style="fill:none;stroke:#7b71ad;stroke-width:1.07;stroke-linecap:butt;stroke-linejoin:round;stroke-miterlimit:10;stroke-dasharray:none;stroke-opacity:1"
           id="path908" /><path
           d="M 111.37,45.58 V 38.99"
           style="fill:none;stroke:#7b71ad;stroke-width:1.07;stroke-linecap:butt;stroke-linejoin:round;stroke-miterlimit:10;stroke-dasharray:none;stroke-opacity:1"
           id="path910" /><path
           d="M 93.26,67.24 V 45.58 h 36.22 v 21.66 z"
           style="fill:#ffffff;fill-opacity:1;fill-rule:nonzero;stroke:#7b71ad;stroke-width:1.07;stroke-linecap:round;stroke-linejoin:round;stroke-miterlimit:10;stroke-dasharray:none;stroke-opacity:1"
           id="path912" /><path
           d="m 93.26,59.07 h 36.22"
           style="fill:none;stroke:#7b71ad;stroke-width:2.13;stroke-linecap:butt;stroke-linejoin:round;stroke-miterlimit:10;stroke-dasharray:none;stroke-opacity:1"
           id="path914" /><path
           d="M 159.67,60.85 V 65.7"
           style="fill:none;stroke:#cba715;stroke-width:1.07;stroke-linecap:butt;stroke-linejoin:round;stroke-miterlimit:10;stroke-dasharray:none;stroke-opacity:1"
           id="path916" /><path
           d="M 159.67,42.48 V 38.45"
           style="fill:none;stroke:#cba715;stroke-width:1.07;stroke-linecap:butt;stroke-linejoin:round;stroke-miterlimit:10;stroke-dasharray:none;stroke-opacity:1"
           id="path918" /><path
           d="M 141.56,60.85 V 42.48 h 36.22 v 18.37 z"
           style="fill:#ffffff;fill-opacity:1;fill-rule:nonzero;stroke:#cba715;stroke-width:1.07;stroke-linecap:round;stroke-linejoin:round;stroke-miterlimit:10;stroke-dasharray:none;stroke-opacity:1"
           id="path920" /><path
           d="m 141.56,46.6 h 36.22"
           style="fill:none;stroke:#cba715;stroke-width:2.13;stroke-linecap:butt;stroke-linejoin:round;stroke-miterlimit:10;stroke-dasharray:none;stroke-opacity:1"
           id="path922" /><path
           d="m 63.08,63.12 48.29,23.53 48.3,-20.95"
           style="fill:none;stroke:#a9a9a9;stroke-width:1.07;stroke-linecap:butt;stroke-linejoin:round;stroke-miterlimit:10;stroke-dasharray:none;stroke-opacity:1"
           id="path924" /><path
           d="m 63.08,60.88 48.29,-1.81 48.3,-16.77"
           style="fill:none;stroke:#a9a9a9;stroke-width:1.07;stroke-linecap:butt;stroke-linejoin:round;stroke-miterlimit:10;stroke-dasharray:none;stroke-opacity:1"
           id="path926" /><path
           d="m 63.08,62.94 48.29,-23.95 48.3,18.55"
           style="fill:none;stroke:#a9a9a9;stroke-width:1.07;stroke-linecap:butt;stroke-linejoin:round;stroke-miterlimit:10;stroke-dasharray:none;stroke-opacity:1"
           id="path928" /><path
           d="m 63.08,38.85 48.29,11.62 48.3,13.69"
           style="fill:none;stroke:#a9a9a9;stroke-width:1.07;stroke-linecap:butt;stroke-linejoin:round;stroke-miterlimit:10;stroke-dasharray:none;stroke-opacity:1"
           id="path930" /><path
           d="m 63.08,80.57 48.29,-11.5 48.3,-22.47"
           style="fill:none;stroke:#a9a9a9;stroke-width:1.07;stroke-linecap:butt;stroke-linejoin:round;stroke-miterlimit:10;stroke-dasharray:none;stroke-opacity:1"
           id="path932" /><path
           d="m 63.08,48.84 48.29,-8.15 48.3,-2.24"
           style="fill:none;stroke:#a9a9a9;stroke-width:1.07;stroke-linecap:butt;stroke-linejoin:round;stroke-miterlimit:10;stroke-dasharray:none;stroke-opacity:1"
           id="path934" /><path
           d="m 63.08,31.64 48.29,33.77 48.3,-22.75"
           style="fill:none;stroke:#a9a9a9;stroke-width:1.07;stroke-linecap:butt;stroke-linejoin:round;stroke-miterlimit:10;stroke-dasharray:none;stroke-opacity:1"
           id="path936" /><path
           d="m 61.12,63.12 c 0,1.07 0.88,1.95 1.96,1.95 1.07,0 1.95,-0.88 1.95,-1.95 0,-1.08 -0.88,-1.96 -1.95,-1.96 -1.08,0 -1.96,0.88 -1.96,1.96"
           style="fill:#507e91;fill-opacity:1;fill-rule:nonzero;stroke:#507e91;stroke-width:0.71;stroke-linecap:round;stroke-linejoin:round;stroke-miterlimit:10;stroke-dasharray:none;stroke-opacity:1"
           id="path938" /><path
           d="m 61.12,60.88 c 0,1.08 0.88,1.96 1.96,1.96 1.07,0 1.95,-0.88 1.95,-1.96 0,-1.07 -0.88,-1.95 -1.95,-1.95 -1.08,0 -1.96,0.88 -1.96,1.95"
           style="fill:#507e91;fill-opacity:1;fill-rule:nonzero;stroke:#507e91;stroke-width:0.71;stroke-linecap:round;stroke-linejoin:round;stroke-miterlimit:10;stroke-dasharray:none;stroke-opacity:1"
           id="path940" /><path
           d="m 61.12,62.94 c 0,1.07 0.88,1.95 1.96,1.95 1.07,0 1.95,-0.88 1.95,-1.95 0,-1.08 -0.88,-1.96 -1.95,-1.96 -1.08,0 -1.96,0.88 -1.96,1.96"
           style="fill:#507e91;fill-opacity:1;fill-rule:nonzero;stroke:#507e91;stroke-width:0.71;stroke-linecap:round;stroke-linejoin:round;stroke-miterlimit:10;stroke-dasharray:none;stroke-opacity:1"
           id="path942" /><path
           d="m 61.12,38.85 c 0,1.08 0.88,1.96 1.96,1.96 1.07,0 1.95,-0.88 1.95,-1.96 0,-1.07 -0.88,-1.95 -1.95,-1.95 -1.08,0 -1.96,0.88 -1.96,1.95"
           style="fill:#507e91;fill-opacity:1;fill-rule:nonzero;stroke:#507e91;stroke-width:0.71;stroke-linecap:round;stroke-linejoin:round;stroke-miterlimit:10;stroke-dasharray:none;stroke-opacity:1"
           id="path944" /><path
           d="m 61.12,80.57 c 0,1.07 0.88,1.95 1.96,1.95 1.07,0 1.95,-0.88 1.95,-1.95 0,-1.08 -0.88,-1.96 -1.95,-1.96 -1.08,0 -1.96,0.88 -1.96,1.96"
           style="fill:#507e91;fill-opacity:1;fill-rule:nonzero;stroke:#507e91;stroke-width:0.71;stroke-linecap:round;stroke-linejoin:round;stroke-miterlimit:10;stroke-dasharray:none;stroke-opacity:1"
           id="path946" /><path
           d="m 61.12,48.84 c 0,1.08 0.88,1.96 1.96,1.96 1.07,0 1.95,-0.88 1.95,-1.96 0,-1.07 -0.88,-1.95 -1.95,-1.95 -1.08,0 -1.96,0.88 -1.96,1.95"
           style="fill:#507e91;fill-opacity:1;fill-rule:nonzero;stroke:#507e91;stroke-width:0.71;stroke-linecap:round;stroke-linejoin:round;stroke-miterlimit:10;stroke-dasharray:none;stroke-opacity:1"
           id="path948" /><path
           d="m 61.12,31.64 c 0,1.07 0.88,1.95 1.96,1.95 1.07,0 1.95,-0.88 1.95,-1.95 0,-1.08 -0.88,-1.96 -1.95,-1.96 -1.08,0 -1.96,0.88 -1.96,1.96"
           style="fill:#507e91;fill-opacity:1;fill-rule:nonzero;stroke:#507e91;stroke-width:0.71;stroke-linecap:round;stroke-linejoin:round;stroke-miterlimit:10;stroke-dasharray:none;stroke-opacity:1"
           id="path950" /><path
           d="m 109.42,86.65 c 0,1.08 0.88,1.96 1.95,1.96 1.08,0 1.96,-0.88 1.96,-1.96 0,-1.07 -0.88,-1.95 -1.96,-1.95 -1.07,0 -1.95,0.88 -1.95,1.95"
           style="fill:#7b71ad;fill-opacity:1;fill-rule:nonzero;stroke:#7b71ad;stroke-width:0.71;stroke-linecap:round;stroke-linejoin:round;stroke-miterlimit:10;stroke-dasharray:none;stroke-opacity:1"
           id="path952" /><path
           d="m 109.42,59.07 c 0,1.08 0.88,1.96 1.95,1.96 1.08,0 1.96,-0.88 1.96,-1.96 0,-1.07 -0.88,-1.95 -1.96,-1.95 -1.07,0 -1.95,0.88 -1.95,1.95"
           style="fill:#7b71ad;fill-opacity:1;fill-rule:nonzero;stroke:#7b71ad;stroke-width:0.71;stroke-linecap:round;stroke-linejoin:round;stroke-miterlimit:10;stroke-dasharray:none;stroke-opacity:1"
           id="path954" /><path
           d="m 109.42,38.99 c 0,1.07 0.88,1.95 1.95,1.95 1.08,0 1.96,-0.88 1.96,-1.95 0,-1.08 -0.88,-1.96 -1.96,-1.96 -1.07,0 -1.95,0.88 -1.95,1.96"
           style="fill:#7b71ad;fill-opacity:1;fill-rule:nonzero;stroke:#7b71ad;stroke-width:0.71;stroke-linecap:round;stroke-linejoin:round;stroke-miterlimit:10;stroke-dasharray:none;stroke-opacity:1"
           id="path956" /><path
           d="m 109.42,50.47 c 0,1.08 0.88,1.96 1.95,1.96 1.08,0 1.96,-0.88 1.96,-1.96 0,-1.07 -0.88,-1.95 -1.96,-1.95 -1.07,0 -1.95,0.88 -1.95,1.95"
           style="fill:#7b71ad;fill-opacity:1;fill-rule:nonzero;stroke:#7b71ad;stroke-width:0.71;stroke-linecap:round;stroke-linejoin:round;stroke-miterlimit:10;stroke-dasharray:none;stroke-opacity:1"
           id="path958" /><path
           d="m 109.42,69.07 c 0,1.08 0.88,1.96 1.95,1.96 1.08,0 1.96,-0.88 1.96,-1.96 0,-1.07 -0.88,-1.95 -1.96,-1.95 -1.07,0 -1.95,0.88 -1.95,1.95"
           style="fill:#7b71ad;fill-opacity:1;fill-rule:nonzero;stroke:#7b71ad;stroke-width:0.71;stroke-linecap:round;stroke-linejoin:round;stroke-miterlimit:10;stroke-dasharray:none;stroke-opacity:1"
           id="path960" /><path
           d="m 109.42,40.69 c 0,1.07 0.88,1.95 1.95,1.95 1.08,0 1.96,-0.88 1.96,-1.95 0,-1.08 -0.88,-1.96 -1.96,-1.96 -1.07,0 -1.95,0.88 -1.95,1.96"
           style="fill:#7b71ad;fill-opacity:1;fill-rule:nonzero;stroke:#7b71ad;stroke-width:0.71;stroke-linecap:round;stroke-linejoin:round;stroke-miterlimit:10;stroke-dasharray:none;stroke-opacity:1"
           id="path962" /><path
           d="m 109.42,65.41 c 0,1.08 0.88,1.96 1.95,1.96 1.08,0 1.96,-0.88 1.96,-1.96 0,-1.07 -0.88,-1.95 -1.96,-1.95 -1.07,0 -1.95,0.88 -1.95,1.95"
           style="fill:#7b71ad;fill-opacity:1;fill-rule:nonzero;stroke:#7b71ad;stroke-width:0.71;stroke-linecap:round;stroke-linejoin:round;stroke-miterlimit:10;stroke-dasharray:none;stroke-opacity:1"
           id="path964" /><path
           d="m 157.71,65.7 c 0,1.07 0.88,1.95 1.96,1.95 1.07,0 1.95,-0.88 1.95,-1.95 0,-1.08 -0.88,-1.96 -1.95,-1.96 -1.08,0 -1.96,0.88 -1.96,1.96"
           style="fill:#cba715;fill-opacity:1;fill-rule:nonzero;stroke:#cba715;stroke-width:0.71;stroke-linecap:round;stroke-linejoin:round;stroke-miterlimit:10;stroke-dasharray:none;stroke-opacity:1"
           id="path966" /><path
           d="m 157.71,42.3 c 0,1.07 0.88,1.95 1.96,1.95 1.07,0 1.95,-0.88 1.95,-1.95 0,-1.08 -0.88,-1.96 -1.95,-1.96 -1.08,0 -1.96,0.88 -1.96,1.96"
           style="fill:#cba715;fill-opacity:1;fill-rule:nonzero;stroke:#cba715;stroke-width:0.71;stroke-linecap:round;stroke-linejoin:round;stroke-miterlimit:10;stroke-dasharray:none;stroke-opacity:1"
           id="path968" /><path
           d="m 157.71,57.54 c 0,1.08 0.88,1.96 1.96,1.96 1.07,0 1.95,-0.88 1.95,-1.96 0,-1.07 -0.88,-1.95 -1.95,-1.95 -1.08,0 -1.96,0.88 -1.96,1.95"
           style="fill:#cba715;fill-opacity:1;fill-rule:nonzero;stroke:#cba715;stroke-width:0.71;stroke-linecap:round;stroke-linejoin:round;stroke-miterlimit:10;stroke-dasharray:none;stroke-opacity:1"
           id="path970" /><path
           d="m 157.71,64.16 c 0,1.08 0.88,1.96 1.96,1.96 1.07,0 1.95,-0.88 1.95,-1.96 0,-1.07 -0.88,-1.95 -1.95,-1.95 -1.08,0 -1.96,0.88 -1.96,1.95"
           style="fill:#cba715;fill-opacity:1;fill-rule:nonzero;stroke:#cba715;stroke-width:0.71;stroke-linecap:round;stroke-linejoin:round;stroke-miterlimit:10;stroke-dasharray:none;stroke-opacity:1"
           id="path972" /><path
           d="m 157.71,46.6 c 0,1.07 0.88,1.95 1.96,1.95 1.07,0 1.95,-0.88 1.95,-1.95 0,-1.08 -0.88,-1.96 -1.95,-1.96 -1.08,0 -1.96,0.88 -1.96,1.96"
           style="fill:#cba715;fill-opacity:1;fill-rule:nonzero;stroke:#cba715;stroke-width:0.71;stroke-linecap:round;stroke-linejoin:round;stroke-miterlimit:10;stroke-dasharray:none;stroke-opacity:1"
           id="path974" /><path
           d="m 157.71,38.45 c 0,1.07 0.88,1.95 1.96,1.95 1.07,0 1.95,-0.88 1.95,-1.95 0,-1.08 -0.88,-1.96 -1.95,-1.96 -1.08,0 -1.96,0.88 -1.96,1.96"
           style="fill:#cba715;fill-opacity:1;fill-rule:nonzero;stroke:#cba715;stroke-width:0.71;stroke-linecap:round;stroke-linejoin:round;stroke-miterlimit:10;stroke-dasharray:none;stroke-opacity:1"
           id="path976" /><path
           d="m 157.71,42.66 c 0,1.07 0.88,1.95 1.96,1.95 1.07,0 1.95,-0.88 1.95,-1.95 0,-1.08 -0.88,-1.96 -1.95,-1.96 -1.08,0 -1.96,0.88 -1.96,1.96"
           style="fill:#cba715;fill-opacity:1;fill-rule:nonzero;stroke:#cba715;stroke-width:0.71;stroke-linecap:round;stroke-linejoin:round;stroke-miterlimit:10;stroke-dasharray:none;stroke-opacity:1"
           id="path978" /><text
           transform="matrix(1,0,0,-1,106.62,105.63)"
           style="font-variant:normal;font-weight:normal;font-size:9px;font-family:Helvetica;-inkscape-font-specification:Helvetica;writing-mode:lr-tb;fill:#000000;fill-opacity:1;fill-rule:nonzero;stroke:none"
           id="text982"><tspan
             x="0 5.0040002"
             y="0"
             sodipodi:role="line"
             id="tspan980">ns</tspan></text><path
           d="M 159.67,102.2 V 104"
           style="fill:none;stroke:#000000;stroke-width:0.64;stroke-linecap:round;stroke-linejoin:round;stroke-miterlimit:10;stroke-dasharray:none;stroke-opacity:1"
           id="path984" /><path
           d="M 159.67,104 H 63.08"
           style="fill:none;stroke:#000000;stroke-width:0.64;stroke-linecap:round;stroke-linejoin:round;stroke-miterlimit:10;stroke-dasharray:none;stroke-opacity:1"
           id="path986" /><path
           d="m 63.08,104 v -1.8"
           style="fill:none;stroke:#000000;stroke-width:0.64;stroke-linecap:round;stroke-linejoin:round;stroke-miterlimit:10;stroke-dasharray:none;stroke-opacity:1"
           id="path988" /><text
           transform="matrix(1,0,0,-1,82.47,91.28)"
           style="font-variant:normal;font-weight:normal;font-size:9px;font-family:Helvetica;-inkscape-font-specification:Helvetica;writing-mode:lr-tb;fill:#000000;fill-opacity:1;fill-rule:nonzero;stroke:none"
           id="text992"><tspan
             x="0 5.0040002"
             y="0"
             sodipodi:role="line"
             id="tspan990">ns</tspan></text><path
           d="m 63.08,87.85 v 1.79"
           style="fill:none;stroke:#000000;stroke-width:0.64;stroke-linecap:round;stroke-linejoin:round;stroke-miterlimit:10;stroke-dasharray:none;stroke-opacity:1"
           id="path994" /><path
           d="m 63.08,89.64 h 48.29"
           style="fill:none;stroke:#000000;stroke-width:0.64;stroke-linecap:round;stroke-linejoin:round;stroke-miterlimit:10;stroke-dasharray:none;stroke-opacity:1"
           id="path996" /><path
           d="M 111.37,89.64 V 87.85"
           style="fill:none;stroke:#000000;stroke-width:0.64;stroke-linecap:round;stroke-linejoin:round;stroke-miterlimit:10;stroke-dasharray:none;stroke-opacity:1"
           id="path998" /><text
           transform="matrix(1,0,0,-1,130.77,98.45)"
           style="font-variant:normal;font-weight:normal;font-size:9px;font-family:Helvetica;-inkscape-font-specification:Helvetica;writing-mode:lr-tb;fill:#000000;fill-opacity:1;fill-rule:nonzero;stroke:none"
           id="text1002"><tspan
             x="0 5.0040002"
             y="0"
             sodipodi:role="line"
             id="tspan1000">ns</tspan></text><path
           d="m 159.67,95.02 v 1.8"
           style="fill:none;stroke:#000000;stroke-width:0.64;stroke-linecap:round;stroke-linejoin:round;stroke-miterlimit:10;stroke-dasharray:none;stroke-opacity:1"
           id="path1004" /><path
           d="m 159.67,96.82 h -48.3"
           style="fill:none;stroke:#000000;stroke-width:0.64;stroke-linecap:round;stroke-linejoin:round;stroke-miterlimit:10;stroke-dasharray:none;stroke-opacity:1"
           id="path1006" /><path
           d="m 111.37,96.82 v -1.8"
           style="fill:none;stroke:#000000;stroke-width:0.64;stroke-linecap:round;stroke-linejoin:round;stroke-miterlimit:10;stroke-dasharray:none;stroke-opacity:1"
           id="path1008" /><text
           transform="matrix(1,0,0,-1,52.38,22.89)"
           style="font-variant:normal;font-weight:normal;font-size:11px;font-family:Helvetica;-inkscape-font-specification:Helvetica;writing-mode:lr-tb;fill:#507e91;fill-opacity:1;fill-rule:nonzero;stroke:none"
           id="text1012"><tspan
             x="0 6.1160002 9.1739998 15.29"
             y="0"
             sodipodi:role="line"
             id="tspan1010">0.61</tspan></text><text
           transform="matrix(1,0,0,-1,100.67,22.89)"
           style="font-variant:normal;font-weight:normal;font-size:11px;font-family:Helvetica;-inkscape-font-specification:Helvetica;writing-mode:lr-tb;fill:#7b71ad;fill-opacity:1;fill-rule:nonzero;stroke:none"
           id="text1016"><tspan
             x="0 6.1160002 9.1739998 15.29"
             y="0"
             sodipodi:role="line"
             id="tspan1014">0.61</tspan></text><text
           transform="matrix(1,0,0,-1,148.96,22.89)"
           style="font-variant:normal;font-weight:normal;font-size:11px;font-family:Helvetica;-inkscape-font-specification:Helvetica;writing-mode:lr-tb;fill:#cba715;fill-opacity:1;fill-rule:nonzero;stroke:none"
           id="text1020"><tspan
             x="0 6.1160002 9.1739998 15.29"
             y="0"
             sodipodi:role="line"
             id="tspan1018">0.57</tspan></text><path
           d="M 34.1,19.4 H 188.64 V 183.06 H 34.1 Z"
           style="fill:none;stroke:#333333;stroke-width:1.07;stroke-linecap:round;stroke-linejoin:round;stroke-miterlimit:10;stroke-dasharray:none;stroke-opacity:1"
           id="path1022" /></g></g><g
       id="g1024" /><g
       id="g1026" /><g
       id="g1028" /><g
       id="g1030" /><g
       id="g1032" /><g
       id="g1034" /><g
       id="g1036" /><g
       id="g1038" /><g
       id="g1040" /><g
       id="g1042" /><g
       id="g1044" /><g
       id="g1046" /><g
       id="g1048" /><g
       id="g1050" /><g
       id="g1052" /><g
       id="g1054"><text
         transform="matrix(1,0,0,-1,16.66,23.61)"
         style="font-variant:normal;font-weight:normal;font-size:9px;font-family:Helvetica;-inkscape-font-specification:Helvetica;writing-mode:lr-tb;fill:#4d4d4d;fill-opacity:1;fill-rule:nonzero;stroke:none"
         id="text1058"><tspan
           x="0 5.0040002 7.506"
           y="0"
           sodipodi:role="line"
           id="tspan1056">0.5</tspan></text><text
         transform="matrix(1,0,0,-1,16.66,53.36)"
         style="font-variant:normal;font-weight:normal;font-size:9px;font-family:Helvetica;-inkscape-font-specification:Helvetica;writing-mode:lr-tb;fill:#4d4d4d;fill-opacity:1;fill-rule:nonzero;stroke:none"
         id="text1062"><tspan
           x="0 5.0040002 7.506"
           y="0"
           sodipodi:role="line"
           id="tspan1060">0.6</tspan></text><text
         transform="matrix(1,0,0,-1,16.66,83.12)"
         style="font-variant:normal;font-weight:normal;font-size:9px;font-family:Helvetica;-inkscape-font-specification:Helvetica;writing-mode:lr-tb;fill:#4d4d4d;fill-opacity:1;fill-rule:nonzero;stroke:none"
         id="text1066"><tspan
           x="0 5.0040002 7.506"
           y="0"
           sodipodi:role="line"
           id="tspan1064">0.7</tspan></text><text
         transform="matrix(1,0,0,-1,16.66,112.88)"
         style="font-variant:normal;font-weight:normal;font-size:9px;font-family:Helvetica;-inkscape-font-specification:Helvetica;writing-mode:lr-tb;fill:#4d4d4d;fill-opacity:1;fill-rule:nonzero;stroke:none"
         id="text1070"><tspan
           x="0 5.0040002 7.506"
           y="0"
           sodipodi:role="line"
           id="tspan1068">0.8</tspan></text><text
         transform="matrix(1,0,0,-1,16.66,142.63)"
         style="font-variant:normal;font-weight:normal;font-size:9px;font-family:Helvetica;-inkscape-font-specification:Helvetica;writing-mode:lr-tb;fill:#4d4d4d;fill-opacity:1;fill-rule:nonzero;stroke:none"
         id="text1074"><tspan
           x="0 5.0040002 7.506"
           y="0"
           sodipodi:role="line"
           id="tspan1072">0.9</tspan></text><text
         transform="matrix(1,0,0,-1,16.66,172.39)"
         style="font-variant:normal;font-weight:normal;font-size:9px;font-family:Helvetica;-inkscape-font-specification:Helvetica;writing-mode:lr-tb;fill:#4d4d4d;fill-opacity:1;fill-rule:nonzero;stroke:none"
         id="text1078"><tspan
           x="0 5.0040002 7.506"
           y="0"
           sodipodi:role="line"
           id="tspan1076">1.0</tspan></text></g><g
       id="g1080" /><g
       id="g1082"><path
         d="M 31.36,26.84 H 34.1"
         style="fill:none;stroke:#333333;stroke-width:1.07;stroke-linecap:butt;stroke-linejoin:round;stroke-miterlimit:10;stroke-dasharray:none;stroke-opacity:1"
         id="path1084" /><path
         d="M 31.36,56.6 H 34.1"
         style="fill:none;stroke:#333333;stroke-width:1.07;stroke-linecap:butt;stroke-linejoin:round;stroke-miterlimit:10;stroke-dasharray:none;stroke-opacity:1"
         id="path1086" /><path
         d="M 31.36,86.35 H 34.1"
         style="fill:none;stroke:#333333;stroke-width:1.07;stroke-linecap:butt;stroke-linejoin:round;stroke-miterlimit:10;stroke-dasharray:none;stroke-opacity:1"
         id="path1088" /><path
         d="M 31.36,116.11 H 34.1"
         style="fill:none;stroke:#333333;stroke-width:1.07;stroke-linecap:butt;stroke-linejoin:round;stroke-miterlimit:10;stroke-dasharray:none;stroke-opacity:1"
         id="path1090" /><path
         d="M 31.36,145.86 H 34.1"
         style="fill:none;stroke:#333333;stroke-width:1.07;stroke-linecap:butt;stroke-linejoin:round;stroke-miterlimit:10;stroke-dasharray:none;stroke-opacity:1"
         id="path1092" /><path
         d="M 31.36,175.62 H 34.1"
         style="fill:none;stroke:#333333;stroke-width:1.07;stroke-linecap:butt;stroke-linejoin:round;stroke-miterlimit:10;stroke-dasharray:none;stroke-opacity:1"
         id="path1094" /></g><g
       id="g1096" /><g
       id="g1098" /><g
       id="g1100" /><g
       id="g1102" /><g
       id="g1104" /><g
       id="g1106" /><g
       id="g1108"><path
         d="M 63.08,16.66 V 19.4"
         style="fill:none;stroke:#333333;stroke-width:1.07;stroke-linecap:butt;stroke-linejoin:round;stroke-miterlimit:10;stroke-dasharray:none;stroke-opacity:1"
         id="path1110" /><path
         d="M 111.37,16.66 V 19.4"
         style="fill:none;stroke:#333333;stroke-width:1.07;stroke-linecap:butt;stroke-linejoin:round;stroke-miterlimit:10;stroke-dasharray:none;stroke-opacity:1"
         id="path1112" /><path
         d="M 159.67,16.66 V 19.4"
         style="fill:none;stroke:#333333;stroke-width:1.07;stroke-linecap:butt;stroke-linejoin:round;stroke-miterlimit:10;stroke-dasharray:none;stroke-opacity:1"
         id="path1114" /></g><g
       id="g1116" /><g
       id="g1118" /><g
       id="g1120" /><g
       id="g1122" /><g
       id="g1124" /><g
       id="g1126" /><g
       id="g1128" /><g
       id="g1130"><text
         transform="matrix(1,0,0,-1,79.36,7.46)"
         style="font-variant:normal;font-weight:normal;font-size:9px;font-family:Helvetica;-inkscape-font-specification:Helvetica;writing-mode:lr-tb;fill:#000000;fill-opacity:1;fill-rule:nonzero;stroke:none"
         id="text1134"><tspan
           x="0 6.0029998 9 14.004 19.007999 21.006001 25.506001 28.007999 33.012001 36.008999 40.508999 43.011002 49.508999 54.008999 59.013"
           y="0"
           sodipodi:role="line"
           id="tspan1132">Predictors Used</tspan></text></g><g
       id="g1136" /><g
       id="g1138"><text
         transform="matrix(0,1,1,0,11.94,91.96)"
         style="font-variant:normal;font-weight:normal;font-size:9px;font-family:Helvetica;-inkscape-font-specification:Helvetica;writing-mode:lr-tb;fill:#000000;fill-opacity:1;fill-rule:nonzero;stroke:none"
         id="text1142"><tspan
           x="0 5.553 12.051"
           y="0"
           sodipodi:role="line"
           id="tspan1140">AUC</tspan></text></g><g
       id="g1144" /><g
       id="g1146" /><g
       id="g1148" /><g
       id="g1150" /><g
       id="g1152" /><g
       id="g1154" /><g
       id="g1156" /><g
       id="g1158"><path
         d="m 199.6,63.37 h 82.92 v 75.72 H 199.6 Z"
         style="fill:#ffffff;fill-opacity:1;fill-rule:nonzero;stroke:none"
         id="path1160" /></g><g
       id="g1162" /><g
       id="g1164" /><g
       id="g1166" /><g
       id="g1168"><text
         transform="matrix(1,0,0,-1,205.08,126.16)"
         style="font-variant:normal;font-weight:normal;font-size:9px;font-family:Helvetica;-inkscape-font-specification:Helvetica;writing-mode:lr-tb;fill:#000000;fill-opacity:1;fill-rule:nonzero;stroke:none"
         id="text1172"><tspan
           x="0 6.0029998 9 14.004 19.007999 21.006001 25.506001 28.007999 33.012001 36.008999 40.508999 43.011002 49.508999 54.008999 59.013"
           y="0"
           sodipodi:role="line"
           id="tspan1170">Predictors Used</tspan></text></g><g
       id="g1174" /><g
       id="g1176" /><g
       id="g1178"><path
         d="m 205.08,103.41 h 17.28 v 17.28 h -17.28 z"
         style="fill:#ffffff;fill-opacity:1;fill-rule:nonzero;stroke:none"
         id="path1180" /></g><g
       id="g1182" /><g
       id="g1184"><path
         d="m 213.72,105.14 v 2.59"
         style="fill:none;stroke:#507e91;stroke-width:1.07;stroke-linecap:round;stroke-linejoin:round;stroke-miterlimit:10;stroke-dasharray:none;stroke-opacity:1"
         id="path1186" /><path
         d="m 213.72,116.37 v 2.59"
         style="fill:none;stroke:#507e91;stroke-width:1.07;stroke-linecap:round;stroke-linejoin:round;stroke-miterlimit:10;stroke-dasharray:none;stroke-opacity:1"
         id="path1188" /><path
         d="m 207.24,107.73 h 12.96 v 8.64 h -12.96 z"
         style="fill:#ffffff;fill-opacity:1;fill-rule:nonzero;stroke:#507e91;stroke-width:1.07;stroke-linecap:round;stroke-linejoin:round;stroke-miterlimit:10;stroke-dasharray:none;stroke-opacity:1"
         id="path1190" /><path
         d="M 207.24,112.05 H 220.2"
         style="fill:none;stroke:#507e91;stroke-width:1.07;stroke-linecap:round;stroke-linejoin:round;stroke-miterlimit:10;stroke-dasharray:none;stroke-opacity:1"
         id="path1192" /></g><g
       id="g1194" /><g
       id="g1196"><path
         d="m 211.77,112.05 c 0,1.07 0.88,1.95 1.95,1.95 1.08,0 1.96,-0.88 1.96,-1.95 0,-1.08 -0.88,-1.96 -1.96,-1.96 -1.07,0 -1.95,0.88 -1.95,1.96"
         style="fill:#507e91;fill-opacity:1;fill-rule:nonzero;stroke:#507e91;stroke-width:0.71;stroke-linecap:round;stroke-linejoin:round;stroke-miterlimit:10;stroke-dasharray:none;stroke-opacity:1"
         id="path1198" /></g><g
       id="g1200" /><g
       id="g1202"><text
         transform="matrix(1,0,0,-1,210.66,108.1)"
         style="font-variant:normal;font-weight:normal;font-size:11px;font-family:Helvetica;-inkscape-font-specification:Helvetica;writing-mode:lr-tb;fill:#507e91;fill-opacity:1;fill-rule:nonzero;stroke:none"
         id="text1206"><tspan
           x="0"
           y="0"
           id="tspan1204">a</tspan></text></g><g
       id="g1208" /><g
       id="g1210"><path
         d="m 205.08,86.13 h 17.28 v 17.28 h -17.28 z"
         style="fill:#ffffff;fill-opacity:1;fill-rule:nonzero;stroke:none"
         id="path1212" /></g><g
       id="g1214" /><g
       id="g1216"><path
         d="m 213.72,87.86 v 2.59"
         style="fill:none;stroke:#7b71ad;stroke-width:1.07;stroke-linecap:round;stroke-linejoin:round;stroke-miterlimit:10;stroke-dasharray:none;stroke-opacity:1"
         id="path1218" /><path
         d="m 213.72,99.09 v 2.59"
         style="fill:none;stroke:#7b71ad;stroke-width:1.07;stroke-linecap:round;stroke-linejoin:round;stroke-miterlimit:10;stroke-dasharray:none;stroke-opacity:1"
         id="path1220" /><path
         d="m 207.24,90.45 h 12.96 v 8.64 h -12.96 z"
         style="fill:#ffffff;fill-opacity:1;fill-rule:nonzero;stroke:#7b71ad;stroke-width:1.07;stroke-linecap:round;stroke-linejoin:round;stroke-miterlimit:10;stroke-dasharray:none;stroke-opacity:1"
         id="path1222" /><path
         d="M 207.24,94.77 H 220.2"
         style="fill:none;stroke:#7b71ad;stroke-width:1.07;stroke-linecap:round;stroke-linejoin:round;stroke-miterlimit:10;stroke-dasharray:none;stroke-opacity:1"
         id="path1224" /></g><g
       id="g1226" /><g
       id="g1228"><path
         d="m 211.77,94.77 c 0,1.07 0.88,1.95 1.95,1.95 1.08,0 1.96,-0.88 1.96,-1.95 0,-1.08 -0.88,-1.96 -1.96,-1.96 -1.07,0 -1.95,0.88 -1.95,1.96"
         style="fill:#7b71ad;fill-opacity:1;fill-rule:nonzero;stroke:#7b71ad;stroke-width:0.71;stroke-linecap:round;stroke-linejoin:round;stroke-miterlimit:10;stroke-dasharray:none;stroke-opacity:1"
         id="path1230" /></g><g
       id="g1232" /><g
       id="g1234"><text
         transform="matrix(1,0,0,-1,210.66,90.82)"
         style="font-variant:normal;font-weight:normal;font-size:11px;font-family:Helvetica;-inkscape-font-specification:Helvetica;writing-mode:lr-tb;fill:#7b71ad;fill-opacity:1;fill-rule:nonzero;stroke:none"
         id="text1238"><tspan
           x="0"
           y="0"
           id="tspan1236">a</tspan></text></g><g
       id="g1240" /><g
       id="g1242"><path
         d="m 205.08,68.85 h 17.28 v 17.28 h -17.28 z"
         style="fill:#ffffff;fill-opacity:1;fill-rule:nonzero;stroke:none"
         id="path1244" /></g><g
       id="g1246" /><g
       id="g1248"><path
         d="m 213.72,70.58 v 2.59"
         style="fill:none;stroke:#cba715;stroke-width:1.07;stroke-linecap:round;stroke-linejoin:round;stroke-miterlimit:10;stroke-dasharray:none;stroke-opacity:1"
         id="path1250" /><path
         d="M 213.72,81.81 V 84.4"
         style="fill:none;stroke:#cba715;stroke-width:1.07;stroke-linecap:round;stroke-linejoin:round;stroke-miterlimit:10;stroke-dasharray:none;stroke-opacity:1"
         id="path1252" /><path
         d="m 207.24,73.17 h 12.96 v 8.64 h -12.96 z"
         style="fill:#ffffff;fill-opacity:1;fill-rule:nonzero;stroke:#cba715;stroke-width:1.07;stroke-linecap:round;stroke-linejoin:round;stroke-miterlimit:10;stroke-dasharray:none;stroke-opacity:1"
         id="path1254" /><path
         d="M 207.24,77.49 H 220.2"
         style="fill:none;stroke:#cba715;stroke-width:1.07;stroke-linecap:round;stroke-linejoin:round;stroke-miterlimit:10;stroke-dasharray:none;stroke-opacity:1"
         id="path1256" /></g><g
       id="g1258" /><g
       id="g1260"><path
         d="m 211.77,77.49 c 0,1.07 0.88,1.95 1.95,1.95 1.08,0 1.96,-0.88 1.96,-1.95 0,-1.08 -0.88,-1.96 -1.96,-1.96 -1.07,0 -1.95,0.88 -1.95,1.96"
         style="fill:#cba715;fill-opacity:1;fill-rule:nonzero;stroke:#cba715;stroke-width:0.71;stroke-linecap:round;stroke-linejoin:round;stroke-miterlimit:10;stroke-dasharray:none;stroke-opacity:1"
         id="path1262" /></g><g
       id="g1264" /><g
       id="g1266"><text
         transform="matrix(1,0,0,-1,210.66,73.54)"
         style="font-variant:normal;font-weight:normal;font-size:11px;font-family:Helvetica;-inkscape-font-specification:Helvetica;writing-mode:lr-tb;fill:#cba715;fill-opacity:1;fill-rule:nonzero;stroke:none"
         id="text1270"><tspan
           x="0"
           y="0"
           id="tspan1268">a</tspan></text></g><g
       id="g1272" /><g
       id="g1274" /><g
       id="g1276" /><g
       id="g1278"><text
         transform="matrix(1,0,0,-1,226.84,109.53)"
         style="font-variant:normal;font-weight:normal;font-size:7px;font-family:Helvetica;-inkscape-font-specification:Helvetica;writing-mode:lr-tb;fill:#000000;fill-opacity:1;fill-rule:nonzero;stroke:none"
         id="text1282"><tspan
           x="0 3.892 7.7839999 9.7299995 13.622 15.176 19.068001 24.899 28.791 31.226999 34.587002 38.479 40.810001"
           y="0"
           sodipodi:role="line"
           id="tspan1280">11 biomarkers</tspan></text></g><g
       id="g1284" /><g
       id="g1286" /><g
       id="g1288" /><g
       id="g1290" /><g
       id="g1292"><text
         transform="matrix(1,0,0,-1,226.84,92.25)"
         style="font-variant:normal;font-weight:normal;font-size:7px;font-family:Helvetica;-inkscape-font-specification:Helvetica;writing-mode:lr-tb;fill:#000000;fill-opacity:1;fill-rule:nonzero;stroke:none"
         id="text1296"><tspan
           x="0 3.892 7.7839999 11.676 13.622 18.291 22.959999 27.629 31.129 33.075001 36.966999 40.859001 42.412998 46.305"
           y="0"
           sodipodi:role="line"
           id="tspan1294">117 ASVs union</tspan></text></g><g
       id="g1298" /><g
       id="g1300" /><g
       id="g1302" /><g
       id="g1304" /><g
       id="g1306"><text
         transform="matrix(1,0,0,-1,226.84,74.97)"
         style="font-variant:normal;font-weight:normal;font-size:7px;font-family:Helvetica;-inkscape-font-specification:Helvetica;writing-mode:lr-tb;fill:#000000;fill-opacity:1;fill-rule:nonzero;stroke:none"
         id="text1310"><tspan
           x="0 3.892 5.4460001 7 8.9460001 13.615 18.284 22.952999"
           y="0"
           sodipodi:role="line"
           id="tspan1308">all ASVs</tspan></text></g><g
       id="g1312" /><g
       id="g1314" /><g
       id="g1316" /><g
       id="g1318" /><g
       id="g1320" /><g
       id="g1322" /><g
       id="g1324"><text
         transform="matrix(1,0,0,-1,34.1,202.62)"
         style="font-variant:normal;font-weight:normal;font-size:11px;font-family:Helvetica;-inkscape-font-specification:Helvetica;writing-mode:lr-tb;fill:#000000;fill-opacity:1;fill-rule:nonzero;stroke:none"
         id="text1328"><tspan
           x="0 6.7870002 12.903 16.566 19.294001 25.41 29.348 38.511002 44.626999 50.743 56.243 62.359001 65.417 67.859001 73.974998 77.032997 82.532997 84.974998 91.091003 96.591003 102.091 104.533 107.591 113.091 115.533 121.649"
           y="0"
           sodipodi:role="line"
           id="tspan1326">Performance in classifying</tspan></text><text
         transform="matrix(1,0,0,-1,37.158,190.96)"
         style="font-variant:normal;font-weight:normal;font-size:11px;font-family:Helvetica;-inkscape-font-specification:Helvetica;writing-mode:lr-tb;fill:#000000;fill-opacity:1;fill-rule:nonzero;stroke:none"
         id="text1332"><tspan
           x="0 7.3369999 14.674 22.615999 25.674 31.790001 37.905998 44.021999 50.138 56.254002 59.312 64.811996 70.928001"
           y="0"
           sodipodi:role="line"
           id="tspan1330">ASD phenotype</tspan></text></g><g
       id="g1334" /><g
       id="g1336" /><g
       id="g1338" /><g
       id="g1340" /><g
       id="g1342" /><g
       id="g1344" /></g></svg>
